<?xml version="1.0" encoding="utf-8"?>
<!-- Generator: Adobe Illustrator 18.0.0, SVG Export Plug-In . SVG Version: 6.00 Build 0)  -->
<!DOCTYPE svg PUBLIC "-//W3C//DTD SVG 1.1//EN" "http://www.w3.org/Graphics/SVG/1.1/DTD/svg11.dtd">
<svg version="1.1" id="Layer_1" xmlns="http://www.w3.org/2000/svg" xmlns:xlink="http://www.w3.org/1999/xlink" x="0px" y="0px"
	 viewBox="0 0 163 63" enable-background="new 0 0 163 63" xml:space="preserve">
<g>
	<path fill-rule="evenodd" clip-rule="evenodd" fill="#FFFFFF" d="M98,38.7c2,0,3.1-1.2,3.1-3.5v-4.5h-1.3v4.6c0,2-1,2.4-1.8,2.4
		c-0.7,0-1.8-0.3-1.8-2.4v-4.6H95v4.5C95,37.6,96,38.7,98,38.7"/>
	<path fill-rule="evenodd" clip-rule="evenodd" fill="#FFFFFF" d="M105.6,33.8c0.8,0,1.2,0.6,1.2,1.6v3.2h1.3v-3.4
		c0-2.2-1.5-2.4-2-2.4c-0.9,0-1.5,0.5-1.8,1l0,0.1h-0.2L104,33h-1.1c0,0.4,0,1,0,1.6v4h1.3v-3.3c0-0.2,0-0.4,0.1-0.5
		C104.5,34.3,104.9,33.8,105.6,33.8"/>
	<rect x="109.9" y="33" fill="#FFFFFF" width="1.3" height="5.6"/>
	<path fill="#000" d="M110.5,30.5c-0.4,0-0.7,0.3-0.7,0.7c0,0.4,0.3,0.7,0.7,0.7c0.4,0,0.7-0.3,0.7-0.7
		C111.2,30.8,110.9,30.5,110.5,30.5"/>
	<path fill-rule="evenodd" clip-rule="evenodd" fill="#FFFFFF" d="M116.5,33l-0.9,2.9c-0.2,0.5-0.3,1-0.4,1.5l0,0.1H115l0-0.1
		c-0.1-0.6-0.2-1-0.4-1.5l-0.9-2.9h-1.4l2.1,5.6h1.3l2.2-5.6H116.5z"/>
	<path fill-rule="evenodd" clip-rule="evenodd" fill="#FFFFFF" d="M121.6,37.8c-0.9,0-1.9-0.4-1.9-1.6l0-0.1h3.9c0-0.1,0-0.3,0-0.5
		c0-1.3-0.6-2.7-2.4-2.7c-1.9,0-2.8,1.6-2.8,3c0,1.8,1.1,2.8,2.9,2.8c0.9,0,1.5-0.2,1.9-0.3l-0.2-0.8
		C122.7,37.7,122.2,37.8,121.6,37.8 M119.7,35.2c0.1-0.6,0.4-1.5,1.5-1.5c0.4,0,0.7,0.1,0.9,0.4c0.4,0.4,0.4,1,0.4,1.2l0,0.1h-2.8
		L119.7,35.2z"/>
	<path fill-rule="evenodd" clip-rule="evenodd" fill="#FFFFFF" d="M127.8,34c0.1,0,0.2,0,0.3,0v-1.2c-0.1,0-0.1,0-0.2,0
		c-0.5,0-1.2,0.4-1.5,1.2l0,0.1h-0.2l0-1.1H125c0,0.5,0,1,0,1.8v3.9h1.3v-2.9c0-0.2,0-0.3,0.1-0.5C126.5,34.5,127.1,34,127.8,34"/>
	<path fill-rule="evenodd" clip-rule="evenodd" fill="#FFFFFF" d="M132.9,37c0-0.8-0.5-1.3-1.5-1.7c-0.7-0.3-1.1-0.5-1.1-0.9
		c0-0.4,0.4-0.7,0.9-0.7c0.5,0,1,0.2,1.2,0.3l0.2-0.8c-0.2-0.1-0.7-0.3-1.4-0.3c-1.2,0-2.1,0.7-2.1,1.7c0,0.7,0.5,1.3,1.5,1.6
		c0.7,0.2,1,0.5,1,0.9c0,0.2-0.1,0.8-1,0.8c-0.5,0-1.1-0.2-1.4-0.4l-0.2,0.9c0.4,0.2,1,0.4,1.7,0.4C132,38.7,132.9,38.1,132.9,37"/>
	<rect x="134.3" y="33" fill="#FFFFFF" width="1.3" height="5.6"/>
	<path fill="#FFFFFF" d="M135,31.9c0.4,0,0.7-0.3,0.7-0.7c0-0.4-0.3-0.7-0.7-0.7c-0.4,0-0.7,0.3-0.7,0.7
		C134.2,31.6,134.5,31.9,135,31.9"/>
	<path fill-rule="evenodd" clip-rule="evenodd" fill="#FFFFFF" d="M141.1,33.5c-0.3-0.5-0.9-0.7-1.6-0.7c-0.6,0-1.2,0.2-1.7,0.7
		c-0.5,0.6-0.8,1.4-0.8,2.3c0,1.7,1,2.9,2.4,2.9c0.8,0,1.5-0.4,1.8-1l0-0.1h0.2l0,0.1l0.1,0.8h1.1c0-0.4,0-1,0-1.5v-6.8h-1.3v3.3
		L141.1,33.5L141.1,33.5z M141.3,35.3v0.9c0,0.2,0,0.3-0.1,0.5c-0.2,0.7-0.7,1.1-1.4,1.1c-1,0-1.6-0.8-1.6-1.9c0-1.2,0.6-2,1.6-2
		c0.7,0,1.2,0.5,1.4,1.1C141.3,35,141.3,35.2,141.3,35.3"/>
	<path fill-rule="evenodd" clip-rule="evenodd" fill="#FFFFFF" d="M147.4,37.9h0.2l0.1,0.6h1.1c-0.1-0.4-0.1-0.9-0.1-1.3v-2.1
		c0-1.1-0.4-2.4-2.3-2.4c-1,0-1.7,0.3-2,0.5l0.2,0.8c0.4-0.2,1-0.4,1.5-0.4c1.2,0,1.3,0.8,1.3,1.1V35l-0.2,0c-2.1,0-3.3,0.7-3.3,2.1
		c0,0.8,0.6,1.6,1.7,1.6C146.4,38.7,147,38.5,147.4,37.9L147.4,37.9z M146.2,37.9c-0.6,0-0.9-0.4-0.9-0.9c0-0.5,0.3-1.2,2-1.2
		c0,0,0.1,0,0.1,0l0.1,0v0.9c0,0.1,0,0.2-0.1,0.4C147.3,37.4,146.8,37.9,146.2,37.9"/>
	<path fill-rule="evenodd" clip-rule="evenodd" fill="#FFFFFF" d="M154.3,37.7h0.2l0,0.1l0.1,0.8h1.1c0-0.4,0-1,0-1.5v-6.8h-1.3v3.3
		h-0.2l-0.1,0c-0.3-0.5-0.9-0.7-1.6-0.7c-0.6,0-1.2,0.2-1.7,0.7c-0.5,0.6-0.8,1.4-0.8,2.3c0,1.7,1,2.9,2.4,2.9
		C153.3,38.7,154,38.4,154.3,37.7L154.3,37.7z M153,37.7c-1,0-1.6-0.8-1.6-1.9c0-1.2,0.6-2,1.6-2c0.7,0,1.2,0.5,1.4,1.1
		c0,0.1,0,0.3,0,0.4v0.9c0,0.2,0,0.3-0.1,0.5C154.2,37.3,153.6,37.7,153,37.7"/>
	<path fill-rule="evenodd" clip-rule="evenodd" fill="#FFFFFF" d="M98.4,49.6h0.2l0,0.1l0,0.7h1c0-0.4,0-0.9,0-1.4v-6.2h-1.1v3h-0.2
		l-0.1,0c-0.2-0.4-0.8-0.7-1.4-0.7c-0.6,0-1.1,0.2-1.5,0.6c-0.5,0.5-0.8,1.3-0.8,2.1c0,1.5,0.9,2.6,2.2,2.6
		C97.5,50.6,98.1,50.2,98.4,49.6L98.4,49.6z M97.2,49.7c-0.9,0-1.4-0.7-1.4-1.8c0-1.1,0.6-1.9,1.4-1.9c0.6,0,1.1,0.4,1.3,1
		c0,0.1,0,0.3,0,0.4v0.8c0,0.2,0,0.3,0,0.4C98.3,49.3,97.8,49.7,97.2,49.7"/>
	<path fill-rule="evenodd" clip-rule="evenodd" fill="#FFFFFF" d="M105.6,47.7c0-1.2-0.6-2.5-2.2-2.5c-1.7,0-2.5,1.4-2.5,2.8
		c0,1.6,1,2.6,2.6,2.6c0.8,0,1.4-0.2,1.7-0.3l-0.2-0.7c-0.4,0.1-0.9,0.2-1.4,0.2c-0.8,0-1.7-0.4-1.7-1.5l0-0.1h3.6
		C105.6,48.1,105.6,47.9,105.6,47.7 M104.6,47.4H102l0-0.1c0.1-0.7,0.5-1.4,1.3-1.4c0.3,0,0.6,0.1,0.8,0.3
		C104.6,46.6,104.6,47.2,104.6,47.4L104.6,47.4z"/>
	<rect x="109.2" y="42.9" fill-rule="evenodd" clip-rule="evenodd" fill="#FFFFFF" width="1.2" height="7.6"/>
	<path fill-rule="evenodd" clip-rule="evenodd" fill="#FFFFFF" d="M113.2,50.6c0.6,0,1.2-0.2,1.5-0.7l0,0h0.2l0.1,0.6h1
		c0-0.4-0.1-0.8-0.1-1.2v-1.9c0-1-0.4-2.1-2.1-2.1c-0.9,0-1.6,0.3-1.8,0.4l0.2,0.7c0.4-0.2,0.9-0.3,1.4-0.3c1.1,0,1.2,0.7,1.2,1v0.2
		l-0.2,0c-1.9,0-3,0.7-3,1.9C111.6,49.8,112.2,50.6,113.2,50.6 M114.6,47.8c0,0,0.1,0,0.1,0l0.1,0v0.8c0,0.1,0,0.2,0,0.3
		c-0.1,0.4-0.5,0.8-1.1,0.8c-0.5,0-0.9-0.3-0.9-0.9C112.8,48.4,113.1,47.8,114.6,47.8"/>
	<path fill-rule="evenodd" clip-rule="evenodd" fill="#FFFFFF" d="M120.8,49c0-0.7-0.4-1.2-1.4-1.5c-0.7-0.2-1-0.4-1-0.8
		c0-0.4,0.3-0.7,0.8-0.7c0.5,0,0.9,0.2,1.1,0.3l0.2-0.8c-0.3-0.1-0.8-0.3-1.3-0.3c-1.1,0-1.9,0.6-1.9,1.6c0,0.6,0.5,1.1,1.4,1.5
		c0.6,0.2,0.9,0.4,0.9,0.9c0,0.2-0.1,0.7-1,0.7c-0.4,0-1-0.2-1.3-0.3l-0.2,0.8c0.4,0.2,0.9,0.3,1.5,0.3C120,50.6,120.8,50,120.8,49"
		/>
	<path fill-rule="evenodd" clip-rule="evenodd" fill="#FFFFFF" d="M127.9,49.6c-1.6,0-2.7-1.1-2.7-2.8c0-1.7,1-2.8,2.7-2.8
		c0.5,0,1,0.1,1.4,0.2l0.2-0.9c-0.3-0.1-0.9-0.3-1.7-0.3c-2.3,0-3.8,1.5-3.8,3.8c0,2.2,1.4,3.6,3.7,3.6c0.8,0,1.5-0.1,1.8-0.3
		l-0.2-0.9C129,49.6,128.4,49.6,127.9,49.6"/>
	<rect x="130.8" y="45.3" fill="#FFFFFF" width="1.2" height="5.1"/>
	<path fill="#FFFFFF" d="M131.3,44.3c0.4,0,0.7-0.3,0.7-0.6c0-0.4-0.3-0.6-0.7-0.6c-0.4,0-0.7,0.3-0.7,0.6
		C130.7,44.1,131,44.3,131.3,44.3"/>
	<path fill-rule="evenodd" clip-rule="evenodd" fill="#FFFFFF" d="M135.9,50.6c0.8,0,1.4-0.2,1.7-0.3l-0.2-0.7
		c-0.4,0.1-0.9,0.2-1.4,0.2c-0.8,0-1.7-0.4-1.7-1.5l0-0.1h3.6c0-0.1,0-0.3,0-0.5c0-1.2-0.6-2.5-2.2-2.5c-1.7,0-2.5,1.4-2.5,2.8
		C133.2,49.6,134.3,50.6,135.9,50.6 M134.3,47.3c0.1-0.5,0.4-1.4,1.3-1.4c0.3,0,0.6,0.1,0.8,0.3c0.4,0.4,0.4,0.9,0.4,1.1l0,0.1h-2.6
		L134.3,47.3z"/>
	<path fill-rule="evenodd" clip-rule="evenodd" fill="#FFFFFF" d="M141.6,46.1c0.7,0,1.1,0.5,1.1,1.4v2.9h1.1v-3.1
		c0-2-1.4-2.2-1.8-2.2c-0.8,0-1.4,0.5-1.6,0.9l0,0.1h-0.2l-0.1-0.8h-1c0,0.4,0,0.9,0,1.5v3.6h1.2v-3c0-0.2,0-0.4,0.1-0.5
		C140.6,46.6,141,46.1,141.6,46.1"/>
	<path fill-rule="evenodd" clip-rule="evenodd" fill="#FFFFFF" d="M147.8,50.6c0.6,0,1.1-0.1,1.4-0.2l-0.1-0.8
		c-0.2,0.1-0.5,0.2-1,0.2c-1,0-1.7-0.7-1.7-1.8c0-0.5,0.2-1,0.5-1.3c0.3-0.3,0.7-0.5,1.2-0.5c0.4,0,0.7,0.1,0.9,0.2l0.2-0.8
		c-0.3-0.1-0.8-0.2-1.2-0.2c-1.7,0-2.9,1.1-2.9,2.7C145.1,49.5,146.2,50.6,147.8,50.6"/>
	<rect x="150.4" y="45.3" fill="#FFFFFF" width="1.2" height="5.1"/>
	<path fill="#FFFFFF" d="M151,44.3c0.4,0,0.7-0.3,0.7-0.6c0-0.4-0.3-0.6-0.7-0.6c-0.4,0-0.7,0.3-0.7,0.6
		C150.3,44.1,150.6,44.3,151,44.3"/>
	<path fill-rule="evenodd" clip-rule="evenodd" fill="#FFFFFF" d="M154.4,50.6c0.6,0,1.2-0.2,1.5-0.7l0,0h0.2l0.1,0.6h1
		c0-0.4-0.1-0.8-0.1-1.2v-1.9c0-1-0.4-2.1-2.1-2.1c-0.9,0-1.6,0.3-1.8,0.4l0.2,0.7c0.4-0.2,0.9-0.3,1.4-0.3c1.1,0,1.2,0.7,1.2,1v0.2
		l-0.2,0c-1.9,0-3,0.7-3,1.9C152.8,49.8,153.4,50.6,154.4,50.6 M155.8,47.8c0,0,0.1,0,0.1,0l0.1,0v0.8c0,0.1,0,0.2,0,0.3
		c-0.1,0.4-0.5,0.8-1.1,0.8c-0.5,0-0.9-0.3-0.9-0.9C153.9,48.4,154.3,47.8,155.8,47.8"/>
	<path fill-rule="evenodd" clip-rule="evenodd" fill="#FFFFFF" d="M162,49c0-0.7-0.4-1.2-1.4-1.5c-0.7-0.2-1-0.4-1-0.8
		c0-0.4,0.3-0.7,0.8-0.7c0.5,0,0.9,0.2,1.1,0.3l0.2-0.8c-0.3-0.1-0.8-0.3-1.3-0.3c-1.1,0-1.9,0.6-1.9,1.6c0,0.6,0.5,1.1,1.4,1.5
		c0.6,0.2,0.9,0.4,0.9,0.9c0,0.2-0.1,0.7-1,0.7c-0.4,0-1-0.2-1.3-0.3l-0.2,0.8c0.4,0.2,0.9,0.3,1.5,0.3C161.2,50.6,162,50,162,49"/>
	<rect x="95.1" y="54.5" fill-rule="evenodd" clip-rule="evenodd" fill="#FFFFFF" width="1.3" height="7.8"/>
	<path fill-rule="evenodd" clip-rule="evenodd" fill="#FFFFFF" d="M100.8,57.6c0.8,0,1.2,0.6,1.2,1.6v3.2h1.3V59
		c0-2.2-1.5-2.4-1.9-2.4c-0.9,0-1.5,0.5-1.7,0.9l0,0.1h-0.2l-0.1-0.9h-1.1c0,0.4,0,0.9,0,1.6v4h1.3V59c0-0.2,0-0.4,0.1-0.5
		C99.7,58.1,100.1,57.6,100.8,57.6"/>
	<path fill-rule="evenodd" clip-rule="evenodd" fill="#FFFFFF" d="M108,55l0.1-0.9c-0.2-0.1-0.5-0.1-0.8-0.1c-0.6,0-1.1,0.2-1.4,0.5
		c-0.4,0.4-0.7,1.1-0.7,1.9v0.3h-0.8v0.9h0.8v4.7h1.3v-4.7h1.3v-0.9h-1.3v-0.4c0-0.9,0.4-1.4,1.1-1.4C107.6,54.9,107.8,54.9,108,55"
		/>
	<path fill-rule="evenodd" clip-rule="evenodd" fill="#FFFFFF" d="M111.1,56.6c-1.8,0-2.9,1.2-2.9,3c0,1.7,1.1,2.9,2.8,2.9
		c1.4,0,2.9-0.9,2.9-3C113.9,57.7,112.8,56.6,111.1,56.6 M111.1,61.6c-0.9,0-1.5-0.8-1.5-2.1c0-0.9,0.4-2.1,1.5-2.1c1,0,1.5,1,1.5,2
		C112.6,60.7,112,61.6,111.1,61.6"/>
	<path fill-rule="evenodd" clip-rule="evenodd" fill="#FFFFFF" d="M118,57.8c0.1,0,0.2,0,0.3,0v-1.2c-0.1,0-0.1,0-0.2,0
		c-0.5,0-1.2,0.4-1.5,1.2l0,0.1h-0.2l0-1.1h-1.1c0,0.5,0,1,0,1.8v3.8h1.3v-2.9c0-0.2,0-0.3,0-0.5C116.7,58.2,117.3,57.8,118,57.8"/>
	<path fill-rule="evenodd" clip-rule="evenodd" fill="#FFFFFF" d="M125.5,57.6c0.7,0,1.1,0.6,1.1,1.6v3.1h1.2V59
		c0-2.2-1.4-2.4-1.8-2.4c-0.4,0-0.8,0.1-1.1,0.3c-0.3,0.2-0.5,0.4-0.7,0.7l0,0h-0.1l0-0.1c-0.2-0.6-0.8-1-1.5-1
		c-0.7,0-1.3,0.3-1.7,0.9l0,0h-0.2l-0.1-0.9h-1.1c0,0.4,0,0.9,0,1.6v4h1.2V59c0-0.2,0-0.4,0.1-0.5c0.1-0.4,0.5-0.9,1.1-0.9
		c0.7,0,1.1,0.6,1.1,1.5v3.2h1.2v-3.4c0-0.1,0-0.3,0.1-0.5C124.5,57.9,125,57.6,125.5,57.6"/>
	<path fill="#FFFFFF" d="M132.5,61.7h0.2l0.1,0.6h1.1c-0.1-0.4-0.1-0.9-0.1-1.3v-2.1c0-1.1-0.4-2.3-2.3-2.3c-1,0-1.7,0.3-2,0.5
		l0.2,0.7c0.4-0.2,1-0.4,1.5-0.4c1.2,0,1.3,0.8,1.3,1.1v0.2l-0.2,0c-2.1,0-3.3,0.7-3.3,2.1c0,0.8,0.6,1.6,1.7,1.6
		C131.5,62.4,132.1,62.2,132.5,61.7L132.5,61.7z M131.3,61.6c-0.6,0-0.9-0.4-0.9-0.9c0-0.5,0.3-1.2,2-1.2c0,0,0.1,0,0.1,0l0.1,0v0.9
		c0,0.1,0,0.2,0,0.4C132.4,61.1,132,61.6,131.3,61.6"/>
	<polygon fill="#FFFFFF" points="131.9,55.8 133.2,54.2 132,54.2 131.1,55.8 	"/>
	<path fill-rule="evenodd" clip-rule="evenodd" fill="#FFFFFF" d="M136.2,62c0.3,0.3,0.7,0.4,1.2,0.4c0.4,0,0.7,0,1-0.1l0-0.9
		c-0.2,0-0.3,0-0.5,0c-0.8,0-0.8-0.6-0.8-1.2v-2.7h1.4v-0.9H137v-1.6l-1.2,0.3v1.3h-0.8v0.9h0.8v2.8C135.8,61.2,135.9,61.7,136.2,62
		"/>
	<rect x="139.7" y="56.7" fill="#FFFFFF" width="1.3" height="5.6"/>
	<path fill="#FFFFFF" d="M140.3,55.7c0.4,0,0.7-0.3,0.7-0.7c0-0.4-0.3-0.7-0.7-0.7c-0.4,0-0.7,0.3-0.7,0.7
		C139.6,55.4,139.9,55.7,140.3,55.7"/>
	<path fill-rule="evenodd" clip-rule="evenodd" fill="#FFFFFF" d="M145.4,56.6c-1.9,0-3.1,1.2-3.1,3c0,1.7,1.1,2.8,2.9,2.8
		c0.7,0,1.2-0.1,1.5-0.3l-0.2-0.9c-0.3,0.1-0.6,0.2-1.1,0.2c-1.1,0-1.9-0.8-1.9-2c0-0.6,0.2-1.1,0.5-1.5c0.3-0.3,0.8-0.5,1.3-0.5
		c0.5,0,0.8,0.1,1,0.2l0.2-0.9C146.4,56.7,145.9,56.6,145.4,56.6"/>
	<path fill-rule="evenodd" clip-rule="evenodd" fill="#FFFFFF" d="M149.3,62.4c0.7,0,1.3-0.3,1.6-0.7l0,0h0.2l0.1,0.6h1.1
		c-0.1-0.4-0.1-0.9-0.1-1.3v-2.1c0-1.1-0.4-2.3-2.3-2.3c-1,0-1.7,0.3-2,0.5l0.2,0.7c0.4-0.2,1-0.4,1.5-0.4c1.2,0,1.3,0.8,1.3,1.1
		v0.2l-0.2,0c-2.1,0-3.3,0.7-3.3,2.1C147.6,61.6,148.2,62.4,149.3,62.4 M150.8,59.5c0,0,0.1,0,0.1,0l0.1,0v0.9c0,0.1,0,0.2-0.1,0.4
		c-0.1,0.4-0.6,0.9-1.2,0.9c-0.6,0-0.9-0.4-0.9-0.9C148.9,60.1,149.2,59.5,150.8,59.5"/>
	<path fill-rule="evenodd" clip-rule="evenodd" fill="#FFFFFF" d="M157.6,60.7c0-0.8-0.5-1.3-1.5-1.7c-0.7-0.3-1.1-0.5-1.1-0.9
		c0-0.4,0.4-0.7,0.9-0.7c0.5,0,0.9,0.2,1.2,0.3l0.2-0.8c-0.2-0.1-0.7-0.3-1.4-0.3c-1.2,0-2.1,0.7-2.1,1.7c0,0.7,0.5,1.2,1.5,1.6
		c0.7,0.2,1,0.4,1,0.9c0,0.2-0.1,0.7-1,0.7c-0.5,0-1.1-0.2-1.4-0.4l-0.2,0.9c0.4,0.2,1,0.4,1.6,0.4
		C156.7,62.4,157.6,61.8,157.6,60.7"/>
	<rect x="75.7" y="40.9" fill-rule="evenodd" clip-rule="evenodd" fill="#FFFFFF" width="8" height="21.5"/>
	<path fill-rule="evenodd" clip-rule="evenodd" fill="#FFFFFF" d="M44.8,39.8c-0.8,2-1.2,4.3-1.2,6.8c0,2.4,0.4,4.6,1.2,6.6
		c0.8,2,1.9,3.7,3.4,5.1c1.5,1.4,3.3,2.4,5.4,3.1c2.1,0.7,4.5,1.1,7.1,1.1h8.3v-6.5h-7.1c-1.5,0-2.8-0.2-4-0.7
		c-1.2-0.4-2.3-1.1-3.1-2c-0.9-0.9-1.5-1.9-2-3.1C52.2,48.9,52,47.5,52,46c0-1.5,0.2-2.8,0.6-4c0.4-1.2,1.1-2.3,1.9-3.1
		c0.8-0.9,1.9-1.5,3.1-2c1.2-0.5,2.5-0.7,3.9-0.7h7.3v-6.4h-7.7c-2.6,0-5,0.4-7.2,1.2c-2.2,0.8-4.1,2-5.7,3.5
		C46.8,35.9,45.6,37.7,44.8,39.8"/>
	<path fill-rule="evenodd" clip-rule="evenodd" fill="#FFFFFF" d="M35.1,58.8c1.1-1.2,2-2.8,2.6-4.6c0.6-1.8,0.9-4,0.9-6.4V30.3h-8
		v18c0,1.3-0.1,2.5-0.3,3.4c-0.2,1-0.6,1.8-1,2.5c-0.5,0.7-1,1.2-1.7,1.5c-0.7,0.3-1.5,0.5-2.4,0.5c-0.9,0-1.7-0.2-2.3-0.5
		c-0.7-0.3-1.3-0.9-1.7-1.6c-0.4-0.7-0.8-1.5-1-2.5c-0.2-1-0.3-2.1-0.3-3.4v-18h-8v17.3c0,2.5,0.3,4.8,0.9,6.6
		c0.6,1.8,1.4,3.4,2.5,4.6c1.1,1.2,2.5,2.1,4.1,2.7c1.6,0.6,3.5,0.9,5.7,0.9c2.2,0,4.2-0.3,5.9-0.9C32.5,60.9,33.9,60,35.1,58.8"/>
	<path fill-rule="evenodd" clip-rule="evenodd" fill="#FFFFFF" d="M81.7,31.7h-4.1v4.1h4.1V31.7z M83.7,37.8h-8.1v-8.1h8.1V37.8z
		 M83,37.1h-6.6v-6.6H83V37.1z"/>
	<path fill-rule="evenodd" clip-rule="evenodd" fill="#FFFFFF" d="M90.1,17.4c0.1-1.3,0.1-2.6-0.1-3.8c-0.2-1.2-0.6-2.3-1.1-3.4
		L88.7,10c-1.3-2.8-3.8-5.1-7.3-6.7c-3.5-1.6-8-2.6-13.2-2.7c-0.6,0-1.3,0-1.9,0c-4.7,0-9.8,0.6-15.2,1.7C45.1,3.5,39,5.5,33,8.1
		c-0.4,0.2-0.9,0.4-1.3,0.6c-0.4,0.2-0.9,0.4-1.3,0.6c-3.4,1.6-6.8,3.4-10,5.4c-3.2,2-6.2,4.1-9.1,6.4c-2.8,2.3-5.4,4.7-7.7,7.1
		c-0.9,1-1.8,2-2.6,3c0.7-0.7,1.3-1.4,2-2.1C5.2,27,7.6,25,10.2,23c2.6-2,5.5-3.9,8.6-5.7c3-1.8,6.3-3.6,9.7-5.2
		c6.4-2.9,12.9-5.2,19.2-6.7c5.9-1.4,11.6-2.1,16.7-2.1c0.3,0,0.7,0,1,0c5.5,0.1,10.1,1,13.8,2.8c3.7,1.7,6.4,4.2,7.9,7.3
		c0.4,0.9,0.7,1.9,0.9,2.9c0.2,0.9,0.3,1.9,0.4,2.9c0,1,0,2-0.1,3c-0.1,0.6-0.2,1.2-0.3,1.8c0.4-0.8,0.8-1.7,1.1-2.6
		C89.7,20,90,18.7,90.1,17.4"/>
</g>
</svg>
